<?xml version="1.0" encoding="iso-8859-1"?>
<!-- Generator: Adobe Illustrator 18.0.0, SVG Export Plug-In . SVG Version: 6.00 Build 0)  -->
<!DOCTYPE svg PUBLIC "-//W3C//DTD SVG 1.1//EN" "http://www.w3.org/Graphics/SVG/1.1/DTD/svg11.dtd">
<svg version="1.1" id="Capa_1" xmlns="http://www.w3.org/2000/svg" xmlns:xlink="http://www.w3.org/1999/xlink" x="0px" y="0px"
	 viewBox="0 0 56 56" style="enable-background:new 0 0 56 56;" xml:space="preserve">
<g id="svg_1">
   <path id="svg_2" fill="#E9E9E0" d="m36.985,0l-29.022,0c-0.808,0 -1.463,0.655 -1.463,1.926l0,53.074c0,0.345 0.655,1 1.463,1l40.074,0c0.808,0 1.463,-0.655 1.463,-1l0,-42.022c0,-0.696 -0.093,-0.92 -0.257,-1.085l-11.636,-11.636c-0.165,-0.164 -0.389,-0.257 -0.622,-0.257z"/>
   <polygon id="svg_3" fill="#D9D7CA" points="37.5,0.151 37.5,12 49.349,12  "/>
   <path id="svg_4" fill="#95A5A5" d="m48.037,56l-40.074,0c-0.808,0 -1.463,-0.655 -1.463,-1.463l0,-15.537l43,0l0,15.537c0,0.808 -0.655,1.463 -1.463,1.463z"/>
   <path id="svg_9" fill="#C8BDB8" d="m18.5,13l-6,0c-0.553,0 -1,-0.448 -1,-1s0.447,-1 1,-1l6,0c0.553,0 1,0.448 1,1s-0.447,1 -1,1z"/>
   <path id="svg_10" fill="#C8BDB8" d="m21.5,18l-9,0c-0.553,0 -1,-0.448 -1,-1s0.447,-1 1,-1l9,0c0.553,0 1,0.448 1,1s-0.447,1 -1,1z"/>
   <path id="svg_11" fill="#C8BDB8" d="m25.5,18c-0.26,0 -0.521,-0.11 -0.71,-0.29c-0.181,-0.19 -0.29,-0.44 -0.29,-0.71s0.109,-0.52 0.3,-0.71c0.36,-0.37 1.04,-0.37 1.41,0c0.18,0.19 0.29,0.45 0.29,0.71c0,0.26 -0.11,0.52 -0.29,0.71c-0.19,0.18 -0.45,0.29 -0.71,0.29z"/>
   <path id="svg_12" fill="#C8BDB8" d="m37.5,18l-8,0c-0.553,0 -1,-0.448 -1,-1s0.447,-1 1,-1l8,0c0.553,0 1,0.448 1,1s-0.447,1 -1,1z"/>
   <path id="svg_13" fill="#C8BDB8" d="m12.5,33c-0.26,0 -0.521,-0.11 -0.71,-0.29c-0.181,-0.19 -0.29,-0.45 -0.29,-0.71c0,-0.26 0.109,-0.52 0.29,-0.71c0.37,-0.37 1.05,-0.37 1.42,0.01c0.18,0.18 0.29,0.44 0.29,0.7c0,0.26 -0.11,0.52 -0.29,0.71c-0.19,0.18 -0.45,0.29 -0.71,0.29z"/>
   <path id="svg_14" fill="#C8BDB8" d="m24.5,33l-8,0c-0.553,0 -1,-0.448 -1,-1s0.447,-1 1,-1l8,0c0.553,0 1,0.448 1,1s-0.447,1 -1,1z"/>
   <path id="svg_15" fill="#C8BDB8" d="m43.5,18l-2,0c-0.553,0 -1,-0.448 -1,-1s0.447,-1 1,-1l2,0c0.553,0 1,0.448 1,1s-0.447,1 -1,1z"/>
   <path id="svg_16" fill="#C8BDB8" d="m34.5,23l-22,0c-0.553,0 -1,-0.448 -1,-1s0.447,-1 1,-1l22,0c0.553,0 1,0.448 1,1s-0.447,1 -1,1z"/>
   <path id="svg_17" fill="#C8BDB8" d="m43.5,23l-6,0c-0.553,0 -1,-0.448 -1,-1s0.447,-1 1,-1l6,0c0.553,0 1,0.448 1,1s-0.447,1 -1,1z"/>
   <path id="svg_18" fill="#C8BDB8" d="m16.5,28l-4,0c-0.553,0 -1,-0.448 -1,-1s0.447,-1 1,-1l4,0c0.553,0 1,0.448 1,1s-0.447,1 -1,1z"/>
   <path id="svg_19" fill="#C8BDB8" d="m30.5,28l-10,0c-0.553,0 -1,-0.448 -1,-1s0.447,-1 1,-1l10,0c0.553,0 1,0.448 1,1s-0.447,1 -1,1z"/>
   <path id="svg_20" fill="#C8BDB8" d="m43.5,28l-9,0c-0.553,0 -1,-0.448 -1,-1s0.447,-1 1,-1l9,0c0.553,0 1,0.448 1,1s-0.447,1 -1,1z"/>
  </g>
  <g id="svg_21"/>
  <g id="svg_22"/>
  <g id="svg_23"/>
  <g id="svg_24"/>
  <g id="svg_25"/>
  <g id="svg_26"/>
  <g id="svg_27"/>
  <g id="svg_28"/>
  <g id="svg_29"/>
  <g id="svg_30"/>
  <g id="svg_31"/>
  <g id="svg_32"/>
  <g id="svg_33"/>
  <g id="svg_34"/>
  <g id="svg_35"/>
</svg>