<svg xmlns="http://www.w3.org/2000/svg" xmlns:xlink="http://www.w3.org/1999/xlink" viewBox="-4749.48 -5020 35.036 35.036"><defs><style>.a{fill:none;}.b{fill:#4e8cff;}.c{clip-path:url(#a);}.d{fill:#fff;}.e{fill:#eff4f9;}</style><clipPath id="a"><path class="a" d="M0-399.479H17.555v17.555H0Z" transform="translate(0 399.479)"/></clipPath></defs><g transform="translate(-4886 -5075)"><g transform="translate(145.13 64)"><g class="c"><g transform="translate(0 0)"><path class="d" d="M-381.924-190.962a8.778,8.778,0,0,0-8.778-8.778,8.778,8.778,0,0,0-8.778,8.778,8.745,8.745,0,0,0,2.26,5.879v1.442c0,.8.492,1.457,1.1,1.457h5.83a.843.843,0,0,0,.183-.02,8.778,8.778,0,0,0,8.184-8.757" transform="translate(399.479 199.74)"/></g><g transform="translate(0 0)"><path class="e" d="M-68.763-194.079a9.292,9.292,0,0,1,6.38-8.888c-.252-.022-.506-.033-.763-.033a8.774,8.774,0,0,0-8.778,8.778A9.508,9.508,0,0,0-69.7-188.3c.005,0,0,.009,0,.01-.311.352-1.924,2.849.021,2.849h2.25c-1.23-.022,1.263-2.107.269-3.494a8.225,8.225,0,0,1-1.6-5.141" transform="translate(71.924 203)"/></g></g></g></g></svg>