<?xml version="1.0" encoding="UTF-8"?>
<!DOCTYPE svg PUBLIC "-//W3C//DTD SVG 1.1//EN" "http://www.w3.org/Graphics/SVG/1.1/DTD/svg11.dtd">
<!-- Creator: CorelDRAW 2018 (64-Bit) -->
<svg xmlns="http://www.w3.org/2000/svg" xml:space="preserve" width="7.61543in" height="10in" version="1.1" style="shape-rendering:geometricPrecision; text-rendering:geometricPrecision; image-rendering:optimizeQuality; fill-rule:evenodd; clip-rule:evenodd"
viewBox="0 0 7615.43 10000"
 xmlns:xlink="http://www.w3.org/1999/xlink">
 <defs>
  <style type="text/css">
   <![CDATA[
    .fil0 {fill:white}
   ]]>
  </style>
 </defs>
 <g id="Layer_x0020_1">
  <metadata id="CorelCorpID_0Corel-Layer"/>
  <g id="_860556048">
   <path class="fil0" d="M5293.41 3202.04c-28.92,38.11 -21.56,92.56 16.56,121.54 38.35,29.03 92.67,21.61 121.7,-16.56 28.98,-38.17 21.62,-92.62 -16.56,-121.54 -38.12,-29.03 -92.56,-21.61 -121.71,16.56zm-2871.19 -606.07c-58.87,61.52 -110.04,175.35 -136.6,250.83l-5.69 16.04 -15.18 7.76c-21.67,10.98 -43.12,21.85 -64.79,32.77l-7.36 3.8 -8.34 0.92c-195.76,21.39 -386.62,64.85 -570.36,125.56 -663.73,219.38 -1145.79,632.4 -1419.21,1263.13 -273.43,630.73 -253.25,1283.07 25.41,1951.92 73.01,175.35 190.81,319.53 366.73,406.17 176.73,87.04 355.46,86.93 530.12,29.15 175.63,-58.01 312.17,-163.56 385.07,-331.67 73.07,-168.73 59.1,-345.11 -14.89,-522.53 -131.48,-315.8 -134.99,-622.8 -6.38,-919.68 128.78,-296.88 351.67,-495.8 665.11,-599.45 314.59,-104.06 630.67,-82.33 947.56,66.29 316.83,148.61 541.28,382.14 673.39,699.2 132.57,318.44 133.26,627.22 3.68,926 -129.58,298.89 -351.96,501.37 -667.87,605.78l-745.02 246.35c-174.54,57.61 -310.28,161.55 -380.47,330.17 -70.25,168.56 -53.81,344.89 19.49,520.92 72.5,174.02 188.8,317.63 364.72,401.52 176.5,84.17 354.83,81.63 528.05,24.43l745.25 -246.41c666.26,-220.25 1147.51,-636.54 1421.86,-1269.28 68.13,-157 99.46,-350.17 121.59,-522.07 21.62,-168.79 34.09,-339.54 41.68,-510.46 3.56,-81.98 4.02,-164.19 6.73,-246.17l0.11 -4.14 0.8 -4.03c10.24,-46.62 20.41,-93.36 30.99,-139.99l3.8 -16.67 14.14 -9.54c66.63,-44.56 164.19,-122.28 209.32,-194.49 -128.32,103.48 -363.63,153.15 -528.85,160.34l-2.42 0 -2.59 -0.11c-492.29,-28.23 -992.8,-272.45 -1409.67,-545.87l-1.95 -1.2 -258.65 -200.35 -1.61 -1.44c-369.03,-335.17 -730.53,-758.41 -880.3,-1227.42l-0.69 -2.42 -0.63 -2.47c-34.15,-161.37 -44.44,-401.4 23.92,-551.16zm1614.28 -240.77c38.17,29.09 92.68,21.68 121.54,-16.56 29.09,-38.17 21.67,-92.62 -16.5,-121.65 -38.11,-28.92 -92.62,-21.5 -121.59,16.67 -29.04,38.12 -21.62,92.5 16.56,121.54zm33.98 705.98c-147.12,38.06 -119.12,125.16 -28.34,216.8 34.55,34.67 73.76,66.98 113.78,94.86l47.78 33.11 -32.83 48.18c-34.95,51 -104.46,146.54 -149.93,185.01l-18.34 15.46 -23.74 -1.78c-260.83,-19.26 -326.78,-153.85 -435.55,-358.69 -17.82,109.35 61.69,226.8 121.54,310.8 30.87,43.29 46.57,84.8 65.48,133.49 29.03,75.14 65.77,117.91 127.46,166.84 64.1,48.69 114.81,73.93 195.3,83.48 51.97,6.21 95.95,11.15 145.51,30.18 96.3,37.08 229.79,84.8 331.37,40.36 -219.84,-52.89 -367.02,-82.73 -452.11,-322.23l-4.43 -12.42 2.3 -24.09 3.57 -8.28c21.5,-50.82 105.84,-152.87 144.59,-197.07l38.35 -43.81 43.98 38.06c53.58,46.22 200.13,157.64 275.15,123.49 41.85,-19.03 47.95,-78.02 48.12,-118.43 0.17,-134.64 -38.41,-288.72 -157.01,-367.54l-3.74 -2.3 -2.99 -2.99c-105.95,-95.26 -264.74,-94.4 -395.25,-60.48zm2781.57 395.48c28.46,-283.37 -2.93,-504.54 -94.17,-663.15 0,0 -42.08,-61.69 -48.52,-155.51 -7.24,-106.42 12.47,-249.45 123.89,-288.66 187.82,-66.11 398.01,-32.77 556.91,91.52 174.6,136.66 257.27,359.95 213.92,577.32 -78.76,298.66 -334.77,516.84 -642.17,547.31 -67.55,1.32 -116.88,-40.02 -109.87,-108.83zm-1691.6 586.63c48.29,268.02 531.62,129.07 679.02,12.7 513.96,-405.48 260.6,-1646.65 -586.41,-924.91 -45.13,35.82 -67.32,99.86 -66.4,192.02 42.08,278.2 -79.05,504.02 -26.22,720.19zm-1664.41 -3138.35c265.55,-103.25 487.06,-132.06 664.3,-86.58 0,0 70.6,23.98 162.76,5.23 104.46,-21.44 237.09,-78.82 245.03,-196.62 13.57,-198.57 -74.8,-392.31 -237.09,-512.07 -178.28,-131.71 -415.6,-151.83 -613.48,-51.86 -266.58,155.8 -408.41,460.73 -355.69,765.14 16.79,65.43 69.79,101.82 134.18,76.75zm-113.08 1786.87c-271.13,24.95 -266.47,-477.92 -193.8,-650.97 253.48,-603.65 1517.06,-691.32 1048.11,317.81 -22.48,53.18 -78.25,91.52 -167.3,115.32 -279.46,33.81 -464.64,210.93 -687.01,217.83z"/>
   <path class="fil0" d="M2871.3 8453.86c-205.78,76.9 -354.51,215.74 -447.59,414.5 -93.1,198.75 -102.48,401.09 -25.54,606.86 77.44,207.27 214.16,360.07 416.14,452.15 202.01,92.12 407.03,95.07 614.28,17.61 207.24,-77.44 360.05,-214.17 452.15,-416.15 92.07,-201.98 95.1,-407.03 17.63,-614.27 -76.85,-205.58 -216.85,-352.47 -417.28,-441.35 -200.66,-89 -403.98,-96.29 -609.79,-19.35z"/>
  </g>
 </g>
</svg>
